<?xml version="1.0" encoding="UTF-8"?>
<svg version="1.1" xmlns="http://www.w3.org/2000/svg" width="512" height="512">
<path d="M0 0 C5.0146494 2.63406858 8.2820084 6.74516173 11.08984375 11.55859375 C12.81949066 18.47718141 12.30993168 23.87926892 9.07416534 30.17272949 C6.85495636 33.82776514 3.94098056 36.6674296 0.89746094 39.64257812 C0.21412689 40.32649628 -0.46920715 41.01041443 -1.17324829 41.71505737 C-3.41473492 43.95377662 -5.6700127 46.17802388 -7.92578125 48.40234375 C-9.49035484 49.95945022 -11.05404258 51.51744725 -12.61688232 53.07629395 C-16.71801347 57.16220613 -20.83101677 61.23595902 -24.94665527 65.30725098 C-29.1500947 69.46965746 -33.34213068 73.64351412 -37.53515625 77.81640625 C-45.75323615 85.99168117 -53.98391063 94.15414908 -62.22265625 102.30859375 C-61.32043872 102.3084314 -60.41822119 102.30826905 -59.48866373 102.30810177 C-6.02847859 102.29924157 47.43161601 102.32154708 100.89176747 102.38438404 C107.30927377 102.39190018 113.72678033 102.39915565 120.14428711 102.40625 C122.0607206 102.40837513 122.0607206 102.40837513 124.01586992 102.41054319 C144.70915474 102.43286813 165.40238971 102.43407097 186.09568321 102.42748238 C207.32531517 102.42119265 228.55484219 102.43756793 249.78444248 102.47502983 C262.88668675 102.49743437 275.98869205 102.502112 289.09094424 102.48419039 C298.07287583 102.47359735 307.05461085 102.48499875 316.036502 102.51375528 C321.22043095 102.52970082 326.40389237 102.53589176 331.58781815 102.51598549 C336.33494464 102.49797054 341.08118671 102.50760725 345.82823528 102.53913258 C347.54439226 102.54566756 349.2606241 102.54210046 350.97673004 102.52733983 C360.16978132 102.45412462 367.80405798 102.46933811 374.77734375 109.30859375 C379.36191874 114.67590106 379.5036474 119.89995816 379.2890625 126.85546875 C378.52133295 132.03617806 376.59927293 135.73348192 372.77734375 139.30859375 C367.68520882 142.67566397 364.46916218 143.80910084 358.23177433 143.81640244 C357.50107348 143.82270619 356.77037264 143.82900994 356.01752934 143.83550471 C353.57370478 143.85174312 351.13086359 143.83961036 348.68702698 143.82757568 C346.91556458 143.83345222 345.14410727 143.84107993 343.37265915 143.85030675 C338.50851152 143.87057796 333.64465537 143.86601019 328.7804848 143.85739923 C323.53376319 143.85245818 318.28711514 143.87053459 313.04042053 143.88581848 C303.9513894 143.90914358 294.86243808 143.91787845 285.77337837 143.9167099 C272.63213494 143.91504146 259.49099798 143.93536733 246.34978294 143.9610652 C225.02917363 144.00216054 203.70858346 144.02546277 182.38793945 144.03759766 C161.67665772 144.04942378 140.96541202 144.06961595 120.25415039 144.10107422 C118.97755535 144.10301032 117.7009603 144.10494642 116.38568056 144.10694119 C109.98139229 144.11670569 103.57710429 144.12663481 97.1728164 144.13664579 C44.04100986 144.21948677 -9.09079822 144.27346061 -62.22265625 144.30859375 C-61.33982468 145.18254288 -60.4569931 146.056492 -59.54740906 146.95692444 C-51.22322623 155.19997157 -42.90966269 163.45359761 -34.60634136 171.71765995 C-30.33732168 175.96581762 -26.06466655 180.21017927 -21.78344727 184.44604492 C-17.65089945 188.53508729 -13.52823939 192.63386307 -9.41221046 196.73953056 C-7.84125742 198.30310082 -6.26679155 199.86314994 -4.68875694 201.41957283 C-2.47666534 203.60256981 -0.27746953 205.79782726 1.91918945 207.99633789 C2.57230606 208.63507339 3.22542267 209.2738089 3.89833069 209.93190002 C8.85379116 214.93265903 12.2026586 219.92281566 12.21484375 227.24609375 C11.99558546 233.26656093 10.24076527 237.73879721 6.05859375 242.1015625 C1.33261858 246.31689205 -2.07138579 247.47967033 -8.47265625 247.62109375 C-9.5709375 247.65847656 -10.66921875 247.69585937 -11.80078125 247.734375 C-18.74586299 246.87020387 -23.47876638 242.49316214 -28.21459961 237.64135742 C-29.04541801 236.8087867 -29.04541801 236.8087867 -29.89302063 235.95939636 C-31.7066029 234.13867784 -33.50942179 232.30767852 -35.3125 230.4765625 C-36.58296943 229.19794358 -37.85418699 227.92006763 -39.12611389 226.64289856 C-42.46513443 223.28681198 -45.79548305 219.92225819 -49.12359619 216.55535889 C-54.44355204 211.17609223 -59.77621525 205.80943217 -65.10965157 200.44353676 C-66.96019918 198.57916074 -68.80679756 196.71094537 -70.65281677 194.84208679 C-75.734962 189.70936485 -80.80803538 184.66890507 -86.31166077 179.98335266 C-90.32064851 176.46995453 -94.05457282 172.6607583 -97.83203125 168.90234375 C-98.72126282 168.01881226 -99.61049438 167.13528076 -100.52667236 166.22497559 C-102.39368098 164.36736046 -104.25928081 162.50832845 -106.12353516 160.64794922 C-108.49931795 158.2776756 -110.88426472 155.91684923 -113.27141953 153.5580368 C-115.5690553 151.28359296 -117.85604539 148.99848807 -120.14453125 146.71484375 C-120.99561462 145.87610718 -121.846698 145.03737061 -122.72357178 144.17321777 C-128.97071902 137.90247966 -133.78447072 132.72186618 -133.84765625 123.43359375 C-133.88117188 122.30179687 -133.9146875 121.17 -133.94921875 120.00390625 C-132.03980422 110.2925829 -123.63208082 103.29867321 -116.85546875 96.61328125 C-115.85129076 95.61217098 -114.84771135 94.61045997 -113.84469604 93.60818481 C-111.75305327 91.52111343 -109.65664393 89.43900471 -107.55615234 87.36083984 C-104.88449484 84.71746138 -102.22158497 82.06548871 -99.5618 79.4101696 C-96.99615727 76.84972005 -94.42588038 74.29394165 -91.85546875 71.73828125 C-91.37652287 71.26121609 -90.89757698 70.78415092 -90.40411758 70.29262924 C-81.88182368 61.81355759 -81.88182368 61.81355759 -77.3046875 57.90380859 C-72.24593757 53.55385599 -67.61156899 48.77634178 -62.93001938 44.02999115 C-61.24228739 42.31994898 -59.550374 40.6141462 -57.85720825 38.90948486 C-53.04935962 34.06829775 -48.24591517 29.22280396 -43.45263672 24.3671875 C-40.50619378 21.38302353 -37.55242073 18.40628437 -34.59387589 15.43412018 C-33.47399439 14.30621508 -32.35688983 13.17554541 -31.24270248 12.04201508 C-29.68545463 10.45817708 -28.119035 8.88396616 -26.55029297 7.31152344 C-25.66397186 6.41552429 -24.77765076 5.51952515 -23.86447144 4.59637451 C-17.05103494 -1.30398105 -8.64313513 -2.68863782 0 0 Z " fill="#000000" transform="translate(133.22265625,132.69140625)"/>
</svg>
