<?xml version="1.0" encoding="UTF-8"?>
<svg xmlns="http://www.w3.org/2000/svg" xmlns:xlink="http://www.w3.org/1999/xlink" width="3003" height="3003" viewBox="0 0 3003 3003">
<path fill-rule="nonzero" fill="rgb(99.609375%, 99.609375%, 99.609375%)" fill-opacity="1" d="M 1.042969 0 C 0.765625 0 0.5 0.109375 0.304688 0.308594 C 0.109375 0.5 0 0.769531 0 1.039062 L 0 3001.042969 C 0 3001.617188 0.46875 3002.085938 1.042969 3002.085938 L 3001.039062 3002.085938 C 3001.320312 3002.085938 3001.589844 3001.976562 3001.78125 3001.78125 C 3001.980469 3001.585938 3002.089844 3001.320312 3002.089844 3001.042969 L 3002.089844 1.039062 C 3002.089844 0.46875 3001.621094 0 3001.039062 0 Z M 1.042969 0 "/>
<path fill-rule="nonzero" fill="rgb(0%, 0%, 0%)" fill-opacity="1" d="M 2063.671875 746.261719 C 2063.671875 453.929688 1826 216.070312 1533.921875 216.070312 C 1241.839844 216.070312 1004.171875 453.929688 1004.171875 746.261719 C 1004.171875 1037.789062 1241.839844 1275.648438 1533.921875 1275.648438 C 1826 1275.648438 2063.671875 1037.789062 2063.671875 746.261719 Z M 2063.671875 746.261719 "/>
<path fill-rule="nonzero" fill="rgb(0%, 0%, 0%)" fill-opacity="1" d="M 613.660156 2258.359375 L 613.660156 2418.539062 C 613.660156 2573.101562 739.300781 2698.84375 893.75 2698.84375 C 1200.011719 2837.53125 1492.96875 2837.535156 1492.96875 2837.535156 C 1836.191406 2837.535156 2174.109375 2698.847656 2174.109375 2698.847656 C 2328.558594 2698.84375 2454.179688 2573.101562 2454.179688 2418.539062 L 2454.179688 2258.359375 C 2454.179688 1750.589844 2041.269531 1337.328125 1533.921875 1337.328125 C 1026.570312 1337.328125 613.660156 1750.589844 613.660156 2258.359375 Z M 613.660156 2258.359375 "/>
</svg>
