<?xml version="1.0" encoding="UTF-8"?>
<svg version="1.1" xmlns="http://www.w3.org/2000/svg" width="512" height="512">
<path d="M0 0 C1.09828125 -0.03738281 2.1965625 -0.07476562 3.328125 -0.11328125 C10.17364202 0.73850112 14.88768542 5.0067007 19.55834961 9.79614258 C20.3599073 10.59945259 20.3599073 10.59945259 21.17765808 11.41899109 C22.9263146 13.1747805 24.66419798 14.94084168 26.40234375 16.70703125 C27.6279722 17.94080999 28.85434943 19.17384532 30.08143616 20.40617371 C33.30209303 23.64389266 36.51407373 26.8900754 39.72381592 30.13861084 C44.85426153 35.32837718 49.99741943 40.50553562 55.14135933 45.68192101 C56.92543447 47.47981668 58.70555363 49.28155395 60.48509216 51.0839386 C65.44715867 56.09721388 70.42466383 61.01662283 75.79676819 65.59550476 C79.96995737 69.26396127 83.85993301 73.23817672 87.796875 77.15625 C89.19731049 78.54813538 89.19731049 78.54813538 90.6260376 79.96813965 C92.5877201 81.91940339 94.54713518 83.87291453 96.50537109 85.82763672 C99.00221884 88.31897604 101.50823584 90.80087648 104.01646042 93.28075409 C106.42903458 95.67014452 108.83094522 98.07016217 111.234375 100.46875 C112.5766214 101.7924762 112.5766214 101.7924762 113.94598389 103.14294434 C120.30593288 109.52575814 125.31062902 114.72496556 125.375 124.1875 C125.40851562 125.31929688 125.44203125 126.45109375 125.4765625 127.6171875 C123.56714797 137.32851085 115.15942457 144.32242054 108.3828125 151.0078125 C107.37863451 152.00892277 106.3750551 153.01063378 105.37203979 154.01290894 C103.28039702 156.09998032 101.18398768 158.18208904 99.08349609 160.26025391 C96.41183859 162.90363237 93.74892872 165.55560504 91.08914375 168.21092415 C88.52350102 170.7713737 85.95322413 173.3271521 83.3828125 175.8828125 C82.90386662 176.35987766 82.42492073 176.83694283 81.93146133 177.32846451 C73.40916743 185.80753616 73.40916743 185.80753616 68.83203125 189.71728516 C63.77328132 194.06723776 59.13891274 198.84475197 54.45736313 203.5911026 C52.76963114 205.30114477 51.07771775 207.00694755 49.384552 208.71160889 C44.57670337 213.552796 39.77325892 218.39828979 34.97998047 223.25390625 C32.03353753 226.23807022 29.07976448 229.21480938 26.12121964 232.18697357 C25.00133814 233.31487867 23.88423358 234.44554834 22.77004623 235.57907867 C21.21279838 237.16291667 19.64637875 238.73712759 18.07763672 240.30957031 C17.19131561 241.20556946 16.30499451 242.1015686 15.39181519 243.02471924 C9.47485535 248.1487366 4.4755082 248.85892968 -3.12109375 248.66015625 C-8.83502181 248.02527535 -12.24381106 245.63388363 -16.0625 241.375 C-20.14908668 235.65377864 -21.40385573 230.30408342 -20.25 223.3125 C-17.83151236 217.01820943 -14.13942955 212.64068784 -9.37011719 207.97851562 C-8.34511612 206.9526384 -8.34511612 206.9526384 -7.29940796 205.90603638 C-5.05792133 203.66731713 -2.80264355 201.44306987 -0.546875 199.21875 C1.01769859 197.66164353 2.58138633 196.1036465 4.14422607 194.5447998 C8.24535722 190.45888762 12.35836052 186.38513473 16.47399902 182.31384277 C20.67743845 178.15143629 24.86947443 173.97757963 29.0625 169.8046875 C37.2805799 161.62941258 45.51125438 153.46694467 53.75 145.3125 C52.84778247 145.31266235 51.94556494 145.3128247 51.01600748 145.31299198 C-2.44417766 145.32185218 -55.90427226 145.29954667 -109.36442372 145.23670971 C-115.78193002 145.22919357 -122.19943658 145.2219381 -128.61694336 145.21484375 C-129.89456569 145.213427 -131.17218802 145.21201025 -132.48852617 145.21055056 C-153.18181099 145.18822562 -173.87504596 145.18702278 -194.56833946 145.19361137 C-215.79797142 145.1999011 -237.02749844 145.18352582 -258.25709873 145.14606392 C-271.359343 145.12365938 -284.4613483 145.11898175 -297.56360049 145.13690336 C-306.54553208 145.1474964 -315.5272671 145.136095 -324.50915825 145.10733847 C-329.6930872 145.09139293 -334.87654862 145.08520199 -340.0604744 145.10510826 C-344.80760089 145.12312321 -349.55384296 145.1134865 -354.30089153 145.08196117 C-356.01704851 145.07542619 -357.73328035 145.07899329 -359.44938629 145.09375392 C-368.64243757 145.16696913 -376.27671423 145.15175564 -383.25 138.3125 C-387.83457499 132.94519269 -387.97630365 127.72113559 -387.76171875 120.765625 C-386.9939892 115.58491569 -385.07192918 111.88761183 -381.25 108.3125 C-376.15786507 104.94542978 -372.94181843 103.81199291 -366.70443058 103.80469131 C-365.97372973 103.79838756 -365.24302889 103.79208381 -364.49018559 103.78558904 C-362.04636103 103.76935063 -359.60351984 103.78148339 -357.15968323 103.79351807 C-355.38822083 103.78764153 -353.61676352 103.78001382 -351.8453154 103.770787 C-346.98116777 103.75051579 -342.11731162 103.75508356 -337.25314105 103.76369452 C-332.00641944 103.76863557 -326.75977139 103.75055916 -321.51307678 103.73527527 C-312.42404565 103.71195017 -303.33509433 103.7032153 -294.24603462 103.70438385 C-281.10479119 103.70605229 -267.96365423 103.68572642 -254.82243919 103.66002855 C-233.50182988 103.61893321 -212.18123971 103.59563098 -190.8605957 103.58349609 C-170.14931397 103.57166997 -149.43806827 103.5514778 -128.72680664 103.52001953 C-127.4502116 103.51808343 -126.17361655 103.51614733 -124.85833681 103.51415256 C-118.45404854 103.50438806 -112.04976054 103.49445894 -105.64547265 103.48444796 C-52.51366611 103.40160698 0.61814197 103.34763314 53.75 103.3125 C52.86716843 102.43855087 51.98433685 101.56460175 51.07475281 100.66416931 C42.75056998 92.42112218 34.43700644 84.16749614 26.13368511 75.9034338 C21.86466543 71.65527613 17.5920103 67.41091448 13.31079102 63.17504883 C9.1782432 59.08600646 5.05558314 54.98723068 0.93955421 50.88156319 C-0.63139883 49.31799293 -2.2058647 47.75794381 -3.78389931 46.20152092 C-5.99599091 44.01852394 -8.19518672 41.82326649 -10.3918457 39.62475586 C-11.04496231 38.98602036 -11.69807892 38.34728485 -12.37098694 37.68919373 C-17.32644741 32.68843472 -20.67531485 27.69827809 -20.6875 20.375 C-20.46824171 14.35453282 -18.71342152 9.88229654 -14.53125 5.51953125 C-9.80527483 1.3042017 -6.40127046 0.14142342 0 0 Z " fill="#000000" transform="translate(387.25,131.6875)"/>
</svg>
